# xmcd
#
# Track frame offsets: 
#        150
#        21589
#        37873
#        56560
#        71676
#        86600
#        119669
#        143964
#        165493
#        189743
#        204880
#        222692
#        241735
#        259148
#        277361
#
# Disc length: 4000 seconds
#
# Revision: 0
# Processed by: cddbd v1.5.1PL0 Copyright (c) Steve Scherf et al.
# Submitted via: ExactAudioCopy v0.95b2
#
DISCID=ea0f9e0f
DTITLE=蔡琴 - 鲍比达・蔡琴 遇见
DYEAR=2000
DGENRE=Funk
TTITLE0=缺口
TTITLE1=把月光射下来
TTITLE2=明天你是否依然爱我
TTITLE3=大约在冬季
TTITLE4=大女人
TTITLE5=不了情&新不了情
TTITLE6=爱情就是这样
TTITLE7=张三的歌
TTITLE8=把悲伤留给自己
TTITLE9=驿动的心
TTITLE10=常喜
TTITLE11=老曲盘
TTITLE12=三年
TTITLE13=一年又一年
TTITLE14=恨不相逢未嫁时
EXTD=
EXTT0=
EXTT1=
EXTT2=
EXTT3=
EXTT4=
EXTT5=
EXTT6=
EXTT7=
EXTT8=
EXTT9=
EXTT10=
EXTT11=
EXTT12=
EXTT13=
EXTT14=
PLAYORDER=
